HIERARCHY
ROOT Hips
{
	OFFSET 0.000000 88.474243 0.000000
	CHANNELS 6 Xposition Yposition Zposition Zrotation Yrotation Xrotation 
	JOINT Hips_Spine
	{
		OFFSET 0.000000 0.000000 0.000000
		CHANNELS 3 Zrotation Yrotation Xrotation
		JOINT Spine
		{
			OFFSET 0.005100 8.711998 -0.691000
			CHANNELS 3 Zrotation Yrotation Xrotation
			JOINT Spine1
			{
				OFFSET -0.009200 8.660301 -1.275000
				CHANNELS 3 Zrotation Yrotation Xrotation
				JOINT Spine2
				{
					OFFSET 0.006300 9.852501 -1.857000
					CHANNELS 3 Zrotation Yrotation Xrotation
					JOINT Spine2_Neck
					{
						OFFSET 0.000000 0.000000 0.000000
						CHANNELS 3 Zrotation Yrotation Xrotation
						JOINT Neck
						{
							OFFSET 0.016300 11.420799 -0.263300
							CHANNELS 3 Zrotation Yrotation Xrotation
							End Site #name: Head
							{
								OFFSET -0.019200 9.262405 2.362500
							}
						}
					}
					JOINT Spine2_LeftShoulder
					{
						OFFSET 0.000000 0.000000 0.000000
						CHANNELS 3 Zrotation Yrotation Xrotation
						JOINT LeftShoulder
						{
							OFFSET 5.616900 6.732201 -0.345700
							CHANNELS 3 Zrotation Yrotation Xrotation
							JOINT LeftArm
							{
								OFFSET 10.664888 -0.183372 -2.440700
								CHANNELS 3 Zrotation Yrotation Xrotation
								JOINT LeftForeArm
								{
									OFFSET 27.459126 0.000000 0.000000
									CHANNELS 3 Zrotation Yrotation Xrotation
									End Site #name: LeftHand
									{
										OFFSET 21.306858 0.000000 0.000000
									}
								}
							}
						}
					}
					JOINT Spine2_RightShoulder
					{
						OFFSET 0.000000 0.000000 0.000000
						CHANNELS 3 Zrotation Yrotation Xrotation
						JOINT RightShoulder
						{
							OFFSET -5.580300 6.737503 -0.344400
							CHANNELS 3 Zrotation Yrotation Xrotation
							JOINT RightArm
							{
								OFFSET -10.679335 -0.188484 -2.383900
								CHANNELS 3 Zrotation Yrotation Xrotation
								JOINT RightForeArm
								{
									OFFSET -27.503529 0.000000 0.000000
									CHANNELS 3 Zrotation Yrotation Xrotation
									End Site #name: RightHand
									{
										OFFSET -21.306808 0.000000 0.000000
									}
								}
							}
						}
					}
				}
			}
		}
	}
	JOINT Hips_LeftUpLeg
	{
		OFFSET 0.000000 0.000000 0.000000
		CHANNELS 3 Zrotation Yrotation Xrotation
		JOINT LeftUpLeg
		{
			OFFSET 6.857700 -6.739601 0.312100
			CHANNELS 3 Zrotation Yrotation Xrotation
			JOINT LeftLeg
			{
				OFFSET -0.367590 -34.731552 -4.572400
				CHANNELS 3 Zrotation Yrotation Xrotation
				End Site #name: LeftFoot
				{
					OFFSET 0.367590 -34.656704 -6.067400
				}
			}
		}
	}
	JOINT Hips_RightUpLeg
	{
		OFFSET 0.000000 0.000000 0.000000
		CHANNELS 3 Zrotation Yrotation Xrotation
		JOINT RightUpLeg
		{
			OFFSET -6.876100 -6.733299 0.301000
			CHANNELS 3 Zrotation Yrotation Xrotation
			JOINT RightLeg
			{
				OFFSET 0.347353 -34.795158 -4.515900
				CHANNELS 3 Zrotation Yrotation Xrotation
				End Site #name: RightFoot
				{
					OFFSET -0.347353 -34.589367 -6.070300
				}
			}
		}
	}
}
MOTION
Frames: 6
Frame Time: 0.041667
-4.469132 -0.500444 -1.427440 -3.668157 24.860693 -7.804810 0.000000 0.000000 0.000000 9.342789 -1.708206 0.751897 3.639163 -1.061063 0.960319 0.000000 0.000000 0.000000 3.104681 -1.013259 0.683279 1.507421 -0.417036 -1.111808 3.214703 -1.189572 1.019398 -22.721932 1.233220 -0.772879 -56.807496 8.494711 31.244319 -0.667523 -19.874376 1.418504 2.922596 -0.856494 0.794389 19.852605 10.364233 3.084073 54.873266 6.880817 8.473753 0.414532 34.494576 -0.077881 0.000000 -0.000000 -0.000000 4.732361 13.559302 -9.651710 4.528542 9.054218 21.930064 0.000000 -0.000000 0.000000 5.950180 -10.275546 -15.176994 1.498750 5.068434 15.144164 
-4.999611 -0.548000 -1.148131 -3.914483 25.272637 -7.747780 0.000000 0.000000 0.000000 9.510336 -1.771396 1.133130 3.802073 -1.076186 0.969913 0.000000 0.000000 0.000000 3.250073 -1.004019 0.720793 1.530616 -0.375474 -0.995006 3.388602 -1.190305 1.106598 -22.522781 1.223919 -0.806196 -57.062044 9.032902 30.965387 -0.663676 -20.219504 1.421437 3.087219 -0.863400 0.795273 19.929728 10.510248 3.139769 54.534404 6.230516 8.606533 0.407703 34.906747 -0.077627 -0.000000 -0.000000 -0.000000 5.584560 13.934219 -9.883543 4.562112 9.254656 22.340986 0.000000 -0.000000 0.000000 6.646011 -10.115156 -15.589920 0.911432 3.342534 15.352853 
-5.480116 -0.601163 -0.857045 -4.070785 25.348624 -7.663194 0.000000 0.000000 0.000000 9.548901 -1.865828 1.510616 3.952540 -1.093054 0.988825 0.000000 0.000000 0.000000 3.378750 -0.997833 0.729641 1.535082 -0.409955 -0.823122 3.551315 -1.193640 1.206738 -22.372788 1.236452 -0.839825 -57.247493 9.572190 30.696257 -0.662187 -20.537622 1.424974 3.240799 -0.873720 0.796868 20.014456 10.643000 3.194559 54.185923 5.653629 8.703145 0.401616 35.371374 -0.074664 -0.000000 -0.000000 -0.000000 6.310109 14.320571 -10.152936 4.666028 9.494847 22.681726 0.000000 -0.000000 0.000000 7.237918 -9.956964 -15.914480 0.363854 1.769452 15.555601 
-5.899268 -0.658310 -0.580846 -4.114106 25.159328 -7.533231 0.000000 -0.000000 0.000000 9.498274 -1.933898 1.959952 4.086101 -1.107595 1.035265 0.000000 0.000000 0.000000 3.488774 -0.983526 0.738810 1.555291 -0.447831 -0.612227 3.698966 -1.193531 1.321815 -22.248051 1.250353 -0.868617 -57.420930 10.101058 30.413155 -0.662211 -20.823595 1.427863 3.375783 -0.874613 0.807507 20.095701 10.775918 3.255218 53.835925 5.176522 8.776577 0.396310 35.844306 -0.071655 -0.000000 -0.000000 -0.000000 6.933896 14.594011 -10.459285 4.823690 9.492598 23.138286 0.000000 -0.000000 0.000000 7.697353 -9.818132 -16.177717 -0.136711 0.409078 15.760134 
-6.248938 -0.713269 -0.333462 -4.037277 24.857564 -7.375381 0.000000 -0.000000 0.000000 9.426287 -1.947100 2.514447 4.201441 -1.107902 1.105131 0.000000 0.000000 0.000000 3.582010 -0.963196 0.763014 1.596286 -0.531042 -0.281239 3.821271 -1.181872 1.460578 -22.142606 1.277342 -0.878427 -57.578937 10.557346 30.166402 -0.661072 -21.090175 1.430692 3.487489 -0.864648 0.829926 20.166286 10.935302 3.318370 53.488584 4.807598 8.832483 0.392588 36.326824 -0.068232 -0.000000 -0.000000 -0.000000 7.489857 14.639988 -11.013729 5.381829 9.563170 24.238851 0.000000 -0.000000 0.000000 7.988818 -9.746370 -16.389119 -0.581850 -0.759001 15.964726 
-6.522604 -0.764037 -0.112629 -3.856527 24.527934 -7.212760 0.000000 -0.000000 0.000000 9.372634 -1.948665 3.006146 4.291428 -1.093188 1.179016 0.000000 0.000000 0.000000 3.659322 -0.936602 0.799861 1.646107 -0.616644 0.099100 3.924403 -1.159949 1.608781 -22.058038 1.306648 -0.877399 -57.716450 10.884703 29.959384 -0.660330 -21.341847 1.434124 3.578088 -0.841105 0.885835 20.247250 11.107755 3.387629 53.159904 4.546329 8.861214 0.390606 36.784865 -0.064514 -0.000000 -0.000000 -0.000000 7.883911 14.508497 -11.657107 6.488204 9.402472 27.584220 0.000000 -0.000000 0.000000 8.085724 -9.687731 -16.542427 -1.000115 -1.838411 16.159158 
